#define glyphs_xbm_width 128
#define glyphs_xbm_height 90
static char glyphs_xbm_bits[] = {
   0x1C, 0x08, 0x1E, 0x1C, 0x1E, 0x3E, 0x3E, 0x3C, 0x22, 0x1C, 0x20, 0x22,
   0x02, 0x22, 0x22, 0x1C, 0x22, 0x14, 0x22, 0x22, 0x22, 0x02, 0x02, 0x02,
   0x22, 0x08, 0x20, 0x12, 0x02, 0x36, 0x22, 0x22, 0x2A, 0x22, 0x22, 0x02,
   0x22, 0x02, 0x02, 0x02, 0x22, 0x08, 0x20, 0x0A, 0x02, 0x2A, 0x26, 0x22,
   0x3A, 0x22, 0x1E, 0x02, 0x22, 0x1E, 0x1E, 0x02, 0x3E, 0x08, 0x20, 0x06,
   0x02, 0x2A, 0x2A, 0x22, 0x1A, 0x3E, 0x22, 0x02, 0x22, 0x02, 0x02, 0x32,
   0x22, 0x08, 0x20, 0x0A, 0x02, 0x22, 0x32, 0x22, 0x02, 0x22, 0x22, 0x22,
   0x22, 0x02, 0x02, 0x22, 0x22, 0x08, 0x22, 0x12, 0x02, 0x22, 0x22, 0x22,
   0x3C, 0x22, 0x1E, 0x1C, 0x1E, 0x3E, 0x02, 0x3C, 0x22, 0x1C, 0x1C, 0x22,
   0x3E, 0x22, 0x22, 0x1C, 0x00, 0x00, 0x00, 0x00, 0x00, 0x00, 0x00, 0x00,
   0x00, 0x00, 0x00, 0x00, 0x00, 0x00, 0x00, 0x00, 0x00, 0x00, 0x00, 0x00,
   0x00, 0x00, 0x00, 0x00, 0x00, 0x00, 0x00, 0x00, 0x00, 0x00, 0x00, 0x00,
   0x1E, 0x1C, 0x1E, 0x1C, 0x3E, 0x22, 0x22, 0x22, 0x22, 0x22, 0x3E, 0x3E,
   0x00, 0x3E, 0x00, 0x00, 0x22, 0x22, 0x22, 0x22, 0x08, 0x22, 0x22, 0x22,
   0x22, 0x22, 0x20, 0x06, 0x02, 0x30, 0x00, 0x00, 0x22, 0x22, 0x22, 0x02,
   0x08, 0x22, 0x22, 0x22, 0x14, 0x14, 0x10, 0x06, 0x04, 0x30, 0x08, 0x00,
   0x1E, 0x22, 0x1E, 0x1C, 0x08, 0x22, 0x22, 0x2A, 0x08, 0x08, 0x08, 0x06,
   0x08, 0x30, 0x14, 0x00, 0x02, 0x2A, 0x0A, 0x20, 0x08, 0x22, 0x22, 0x2A,
   0x14, 0x08, 0x04, 0x06, 0x10, 0x30, 0x22, 0x00, 0x02, 0x12, 0x12, 0x22,
   0x08, 0x22, 0x14, 0x36, 0x22, 0x08, 0x02, 0x06, 0x20, 0x30, 0x00, 0x00,
   0x02, 0x2C, 0x22, 0x1C, 0x08, 0x1C, 0x08, 0x22, 0x22, 0x08, 0x3E, 0x3E,
   0x00, 0x3E, 0x00, 0x00, 0x00, 0x00, 0x00, 0x00, 0x00, 0x00, 0x00, 0x00,
   0x00, 0x00, 0x00, 0x00, 0x00, 0x00, 0x00, 0x7F, 0x00, 0x00, 0x00, 0x00,
   0x00, 0x00, 0x00, 0x00, 0x00, 0x00, 0x00, 0x00, 0x00, 0x00, 0x00, 0x00,
   0x00, 0x08, 0x14, 0x14, 0x08, 0x06, 0x04, 0x08, 0x08, 0x08, 0x08, 0x00,
   0x00, 0x00, 0x00, 0x00, 0x00, 0x08, 0x14, 0x14, 0x3C, 0x26, 0x0A, 0x08,
   0x04, 0x10, 0x2A, 0x08, 0x00, 0x00, 0x00, 0x20, 0x00, 0x08, 0x14, 0x3E,
   0x0A, 0x10, 0x0A, 0x08, 0x02, 0x20, 0x1C, 0x08, 0x00, 0x00, 0x00, 0x10,
   0x00, 0x08, 0x00, 0x14, 0x1C, 0x08, 0x04, 0x00, 0x02, 0x20, 0x08, 0x3E,
   0x00, 0x3E, 0x00, 0x08, 0x00, 0x08, 0x00, 0x3E, 0x28, 0x04, 0x2A, 0x00,
   0x02, 0x20, 0x1C, 0x08, 0x08, 0x00, 0x00, 0x04, 0x00, 0x00, 0x00, 0x14,
   0x1E, 0x32, 0x12, 0x00, 0x04, 0x10, 0x2A, 0x08, 0x08, 0x00, 0x00, 0x02,
   0x00, 0x08, 0x00, 0x14, 0x08, 0x30, 0x2C, 0x00, 0x08, 0x08, 0x08, 0x00,
   0x04, 0x00, 0x08, 0x00, 0x00, 0x00, 0x00, 0x00, 0x00, 0x00, 0x00, 0x00,
   0x00, 0x00, 0x00, 0x00, 0x00, 0x00, 0x00, 0x00, 0x00, 0x00, 0x00, 0x00,
   0x00, 0x00, 0x00, 0x00, 0x00, 0x00, 0x00, 0x00, 0x00, 0x00, 0x00, 0x00,
   0x1C, 0x08, 0x1C, 0x3E, 0x10, 0x3E, 0x38, 0x3E, 0x1C, 0x1C, 0x00, 0x00,
   0x10, 0x00, 0x04, 0x1C, 0x22, 0x0C, 0x22, 0x20, 0x18, 0x02, 0x04, 0x20,
   0x22, 0x22, 0x00, 0x00, 0x08, 0x00, 0x08, 0x22, 0x32, 0x08, 0x20, 0x10,
   0x14, 0x1E, 0x02, 0x10, 0x22, 0x22, 0x08, 0x08, 0x04, 0x3E, 0x10, 0x10,
   0x2A, 0x08, 0x18, 0x18, 0x12, 0x20, 0x1E, 0x08, 0x1C, 0x3C, 0x00, 0x00,
   0x02, 0x00, 0x20, 0x08, 0x26, 0x08, 0x04, 0x20, 0x3E, 0x20, 0x22, 0x04,
   0x22, 0x20, 0x08, 0x08, 0x04, 0x3E, 0x10, 0x08, 0x22, 0x08, 0x02, 0x22,
   0x10, 0x22, 0x22, 0x04, 0x22, 0x10, 0x00, 0x08, 0x08, 0x00, 0x08, 0x00,
   0x1C, 0x1C, 0x3E, 0x1C, 0x10, 0x1C, 0x1C, 0x04, 0x1C, 0x0E, 0x00, 0x04,
   0x10, 0x00, 0x04, 0x08, 0x00, 0x00, 0x00, 0x00, 0x00, 0x00, 0x00, 0x00,
   0x00, 0x00, 0x00, 0x00, 0x00, 0x00, 0x00, 0x00, 0x00, 0x00, 0x00, 0x00,
   0x00, 0x00, 0x00, 0x00, 0x00, 0x00, 0x00, 0x00, 0x00, 0x00, 0x00, 0x00,
   0x10, 0x10, 0x00, 0x7F, 0x00, 0x7F, 0x70, 0x00, 0x08, 0x00, 0x08, 0x08,
   0x7F, 0x40, 0x3F, 0x13, 0x08, 0x08, 0x00, 0x22, 0x40, 0x3F, 0x60, 0x18,
   0x04, 0x00, 0x08, 0x1C, 0x00, 0x40, 0x3F, 0x18, 0x36, 0x36, 0x02, 0x14,
   0x20, 0x5F, 0x7E, 0x07, 0x02, 0x00, 0x08, 0x2A, 0x00, 0x40, 0x3F, 0x1C,
   0x7F, 0x41, 0x06, 0x08, 0x11, 0x6C, 0x31, 0x00, 0x7F, 0x00, 0x08, 0x49,
   0x00, 0x44, 0x3F, 0x7E, 0x3F, 0x21, 0x0E, 0x08, 0x0A, 0x75, 0x79, 0x07,
   0x02, 0x00, 0x49, 0x08, 0x00, 0x46, 0x3F, 0x1C, 0x3F, 0x21, 0x1E, 0x14,
   0x04, 0x7B, 0x30, 0x0C, 0x04, 0x00, 0x2A, 0x08, 0x00, 0x7F, 0x3F, 0x18,
   0x7E, 0x4A, 0x36, 0x2A, 0x04, 0x7B, 0x3F, 0x08, 0x08, 0x00, 0x1C, 0x08,
   0x00, 0x06, 0x3F, 0x10, 0x36, 0x36, 0x42, 0x7F, 0x00, 0x7F, 0x02, 0x70,
   0x00, 0x2A, 0x08, 0x08, 0x00, 0x04, 0x3F, 0x6F, 0x00, 0x00, 0x00, 0x00,
   0x00, 0x00, 0x00, 0x00, 0x00, 0x00, 0x00, 0x00, 0x00, 0x00, 0x00, 0x00,
   0x64, 0x40, 0x40, 0x00, 0x01, 0x08, 0x2A, 0x55, 0x00, 0x00, 0x40, 0x08,
   0x7F, 0x14, 0x7F, 0x01, 0x0C, 0x48, 0x48, 0x00, 0x01, 0x10, 0x55, 0x2A,
   0x3E, 0x00, 0x40, 0x1C, 0x00, 0x14, 0x40, 0x01, 0x1C, 0x08, 0x1C, 0x00,
   0x01, 0x20, 0x2A, 0x55, 0x41, 0x3F, 0x40, 0x3E, 0x00, 0x77, 0x40, 0x01,
   0x3F, 0x7F, 0x3E, 0x7F, 0x01, 0x7F, 0x55, 0x2A, 0x01, 0x40, 0x40, 0x7F,
   0x00, 0x00, 0x4C, 0x01, 0x1C, 0x3E, 0x7F, 0x00, 0x01, 0x20, 0x2A, 0x55,
   0x01, 0x40, 0x40, 0x3E, 0x00, 0x77, 0x4C, 0x01, 0x0C, 0x1C, 0x08, 0x00,
   0x01, 0x10, 0x55, 0x2A, 0x01, 0x40, 0x40, 0x1C, 0x00, 0x14, 0x40, 0x01,
   0x04, 0x48, 0x48, 0x00, 0x01, 0x08, 0x2A, 0x55, 0x7F, 0x7F, 0x40, 0x08,
   0x00, 0x14, 0x40, 0x01, 0x7B, 0x40, 0x40, 0x00, 0x7F, 0x00, 0x55, 0x2A,
   0x00, 0x00, 0x40, 0x00, 0x7F, 0x00, 0x7F, 0x01, 0x00, 0x00, 0x00, 0x00,
   0x00, 0x00, 0x00, 0x00, 0x00, 0x00, 0x00, 0x00, 0x00, 0x00, 0x00, 0x00,
   0x04, 0x00, 0x02, 0x00, 0x20, 0x00, 0x18, 0x00, 0x02, 0x08, 0x10, 0x02,
   0x0C, 0x00, 0x00, 0x00, 0x08, 0x00, 0x02, 0x00, 0x20, 0x00, 0x24, 0x00,
   0x02, 0x00, 0x00, 0x02, 0x08, 0x00, 0x00, 0x00, 0x10, 0x1C, 0x1E, 0x3C,
   0x3C, 0x1C, 0x04, 0x1C, 0x1E, 0x0C, 0x18, 0x22, 0x08, 0x36, 0x1E, 0x1C,
   0x00, 0x20, 0x22, 0x02, 0x22, 0x22, 0x1E, 0x22, 0x22, 0x08, 0x10, 0x12,
   0x08, 0x2A, 0x22, 0x22, 0x00, 0x3C, 0x22, 0x02, 0x22, 0x3E, 0x04, 0x22,
   0x22, 0x08, 0x10, 0x0E, 0x08, 0x2A, 0x22, 0x22, 0x00, 0x22, 0x22, 0x02,
   0x22, 0x02, 0x04, 0x3C, 0x22, 0x08, 0x10, 0x12, 0x08, 0x2A, 0x22, 0x22,
   0x00, 0x3C, 0x1E, 0x3C, 0x3C, 0x3C, 0x04, 0x20, 0x22, 0x1C, 0x12, 0x22,
   0x1C, 0x22, 0x22, 0x1C, 0x00, 0x00, 0x00, 0x00, 0x00, 0x00, 0x00, 0x1C,
   0x00, 0x00, 0x0C, 0x00, 0x00, 0x00, 0x00, 0x00, 0x00, 0x00, 0x00, 0x00,
   0x00, 0x00, 0x00, 0x00, 0x00, 0x00, 0x00, 0x00, 0x00, 0x00, 0x00, 0x00,
   0x00, 0x00, 0x00, 0x00, 0x04, 0x00, 0x00, 0x00, 0x00, 0x00, 0x00, 0x38,
   0x08, 0x0E, 0x2C, 0x00, 0x00, 0x00, 0x00, 0x00, 0x04, 0x00, 0x00, 0x00,
   0x00, 0x00, 0x00, 0x0C, 0x08, 0x18, 0x1A, 0x2A, 0x1E, 0x3C, 0x3A, 0x3C,
   0x1E, 0x22, 0x22, 0x22, 0x22, 0x22, 0x3E, 0x0C, 0x08, 0x18, 0x00, 0x14,
   0x22, 0x22, 0x06, 0x02, 0x04, 0x22, 0x22, 0x22, 0x14, 0x22, 0x10, 0x06,
   0x08, 0x30, 0x00, 0x2A, 0x22, 0x22, 0x02, 0x1C, 0x04, 0x22, 0x22, 0x2A,
   0x08, 0x22, 0x08, 0x0C, 0x08, 0x18, 0x00, 0x14, 0x1E, 0x3C, 0x02, 0x20,
   0x24, 0x32, 0x14, 0x2A, 0x14, 0x3C, 0x04, 0x0C, 0x08, 0x18, 0x00, 0x2A,
   0x02, 0x20, 0x02, 0x1E, 0x18, 0x2C, 0x08, 0x36, 0x22, 0x20, 0x3E, 0x38,
   0x08, 0x0E, 0x00, 0x00, 0x02, 0x20, 0x00, 0x00, 0x00, 0x00, 0x00, 0x00,
   0x00, 0x1C, 0x00, 0x00, 0x08, 0x00, 0x00, 0x00, 0x00, 0x00, 0x00, 0x00,
   0x00, 0x00, 0x00, 0x00, 0x00, 0x00, 0x00, 0x00, 0x00, 0x00, 0x00, 0x00,
   0x22, 0x04, 0x2C, 0x22, 0x22, 0x04, 0x22, 0x04, 0x00, 0x10, 0x04, 0x2C,
   0x22, 0x04, 0x22, 0x1C, 0x00, 0x08, 0x1A, 0x00, 0x00, 0x08, 0x00, 0x08,
   0x00, 0x08, 0x08, 0x1A, 0x00, 0x08, 0x00, 0x22, 0x08, 0x1C, 0x00, 0x1C,
   0x22, 0x22, 0x1C, 0x1C, 0x3C, 0x1C, 0x1C, 0x00, 0x1C, 0x1C, 0x22, 0x22,
   0x14, 0x08, 0x22, 0x22, 0x22, 0x22, 0x20, 0x20, 0x02, 0x22, 0x22, 0x1E,
   0x22, 0x22, 0x22, 0x1A, 0x22, 0x08, 0x26, 0x22, 0x22, 0x22, 0x3C, 0x3C,
   0x02, 0x3E, 0x3E, 0x22, 0x22, 0x22, 0x22, 0x22, 0x3E, 0x08, 0x2A, 0x22,
   0x22, 0x22, 0x22, 0x22, 0x3C, 0x02, 0x02, 0x22, 0x22, 0x22, 0x32, 0x22,
   0x22, 0x08, 0x32, 0x22, 0x22, 0x22, 0x3C, 0x3C, 0x08, 0x3C, 0x3C, 0x22,
   0x1C, 0x1C, 0x2C, 0x1A, 0x22, 0x1C, 0x22, 0x1C, 0x1C, 0x1C, 0x00, 0x00,
   0x04, 0x00, 0x00, 0x00, 0x00, 0x00, 0x00, 0x02, 0x00, 0x00, 0x00, 0x00,
   0x00, 0x00, 0x00, 0x00, 0x00, 0x00, 0x00, 0x00, 0x00, 0x00, 0x00, 0x00,
   0x18, 0x3C, 0x04, 0x08, 0x08, 0x22, 0x3F, 0x7F, 0x00, 0x00, 0x00, 0x00,
   0x00, 0x00, 0x00, 0x00, 0x24, 0x02, 0x0A, 0x00, 0x00, 0x00, 0x3F, 0x00,
   0x00, 0x00, 0x00, 0x00, 0x00, 0x00, 0x00, 0x00, 0x04, 0x1C, 0x04, 0x08,
   0x08, 0x00, 0x3F, 0x7F, 0x00, 0x00, 0x00, 0x00, 0x00, 0x00, 0x00, 0x00,
   0x0E, 0x22, 0x00, 0x08, 0x08, 0x00, 0x3B, 0x00, 0x00, 0x00, 0x00, 0x00,
   0x00, 0x00, 0x00, 0x00, 0x04, 0x22, 0x00, 0x08, 0x04, 0x00, 0x39, 0x7F,
   0x00, 0x00, 0x00, 0x00, 0x00, 0x00, 0x00, 0x00, 0x04, 0x1C, 0x00, 0x08,
   0x22, 0x00, 0x00, 0x00, 0x00, 0x00, 0x00, 0x00, 0x00, 0x00, 0x00, 0x00,
   0x3E, 0x20, 0x00, 0x08, 0x1C, 0x00, 0x79, 0x00, 0x00, 0x00, 0x00, 0x00,
   0x00, 0x00, 0x00, 0x00, 0x00, 0x1E, 0x00, 0x00, 0x00, 0x00, 0x7B, 0x7F,
   0x00, 0x00, 0x00, 0x00, 0x00, 0x00, 0x00, 0x00, 0x00, 0x00, 0x00, 0x00,
   0x00, 0x00, 0x00, 0x00, 0x00, 0x00, 0x00, 0x00, 0x00, 0x00, 0x00, 0x00
};
